<mxfile host="app.diagrams.net" modified="2022-06-09T07:53:03.177Z" agent="5.0 (Windows NT 10.0; Win64; x64) AppleWebKit/537.36 (KHTML, like Gecko) Chrome/102.0.0.0 Safari/537.36" etag="AC-HSaYFaKBuvYtpm8YD" version="19.0.3" type="github">
  <diagram id="C5RBs43oDa-KdzZeNtuy" name="Page-1">
    <mxGraphModel dx="2249" dy="757" grid="1" gridSize="10" guides="1" tooltips="1" connect="1" arrows="1" fold="1" page="1" pageScale="1" pageWidth="827" pageHeight="1169" math="0" shadow="0">
      <root>
        <mxCell id="WIyWlLk6GJQsqaUBKTNV-0" />
        <mxCell id="WIyWlLk6GJQsqaUBKTNV-1" parent="WIyWlLk6GJQsqaUBKTNV-0" />
        <mxCell id="iNfMXYK0mqE8fQsRYW3O-4" style="edgeStyle=orthogonalEdgeStyle;rounded=0;orthogonalLoop=1;jettySize=auto;html=1;exitX=-0.004;exitY=0.266;exitDx=0;exitDy=0;endArrow=block;endFill=0;exitPerimeter=0;entryX=1.002;entryY=0.156;entryDx=0;entryDy=0;entryPerimeter=0;" edge="1" parent="WIyWlLk6GJQsqaUBKTNV-1" source="iNfMXYK0mqE8fQsRYW3O-3" target="iNfMXYK0mqE8fQsRYW3O-2">
          <mxGeometry relative="1" as="geometry">
            <mxPoint x="180" y="161" as="targetPoint" />
          </mxGeometry>
        </mxCell>
        <mxCell id="iNfMXYK0mqE8fQsRYW3O-3" value="&lt;br&gt;«interface»&lt;br&gt;&lt;b&gt;StockBusinessInterface&lt;/b&gt;&lt;br&gt;&lt;br&gt;&lt;br&gt;&lt;div style=&quot;text-align: left;&quot;&gt;待子类实现函数：&lt;/div&gt;&lt;div style=&quot;text-align: left;&quot;&gt;&lt;br&gt;&lt;/div&gt;&lt;div style=&quot;text-align: left;&quot;&gt;&lt;div&gt;&lt;span style=&quot;background-color: initial;&quot;&gt;&lt;b&gt;InitInstrumentInfoMap() = 0&lt;/b&gt;&lt;/span&gt;&lt;/div&gt;&lt;div&gt;&lt;span style=&quot;background-color: initial;&quot;&gt;&lt;b&gt;InitPbSuber() = 0&lt;/b&gt;&lt;/span&gt;&lt;/div&gt;&lt;div&gt;&lt;span style=&quot;background-color: initial;&quot;&gt;&lt;b&gt;GetAvalavlePosForClose(pos_item) = 0&lt;/b&gt;&lt;/span&gt;&lt;/div&gt;&lt;/div&gt;&lt;div style=&quot;text-align: left;&quot;&gt;&lt;br&gt;&lt;/div&gt;&lt;div style=&quot;text-align: left;&quot;&gt;&lt;br&gt;&lt;/div&gt;&lt;div style=&quot;text-align: left;&quot;&gt;实现函数：&lt;/div&gt;&lt;div style=&quot;text-align: left;&quot;&gt;&lt;br&gt;&lt;/div&gt;&lt;div style=&quot;text-align: left;&quot;&gt;InitMd(channel_name)&lt;br&gt;&lt;/div&gt;&lt;div style=&quot;text-align: left;&quot;&gt;&lt;div&gt;&lt;span style=&quot;background-color: initial;&quot;&gt;GetMdBuyPrice(ins_id, price_type)&amp;nbsp;&lt;/span&gt;&lt;/div&gt;&lt;div&gt;GetMdSellPrice(ins_id, price_type)&lt;span style=&quot;background-color: initial;&quot;&gt;&lt;br&gt;&lt;/span&gt;&lt;/div&gt;&lt;div&gt;GetOffsetPrice(ins_id, price_type)&lt;br&gt;&lt;/div&gt;&lt;div&gt;GetFormatOrder(order_item)&lt;/div&gt;&lt;/div&gt;&lt;div style=&quot;text-align: left;&quot;&gt;&lt;br&gt;&lt;/div&gt;" style="html=1;" vertex="1" parent="WIyWlLk6GJQsqaUBKTNV-1">
          <mxGeometry x="320" y="80" width="320" height="300" as="geometry" />
        </mxCell>
        <mxCell id="iNfMXYK0mqE8fQsRYW3O-2" value="&lt;br&gt;«interface»&lt;br&gt;&lt;b&gt;BusinessInterface&lt;br&gt;&lt;/b&gt;&lt;br&gt;&lt;div style=&quot;text-align: left;&quot;&gt;&lt;br&gt;&lt;/div&gt;&lt;div style=&quot;text-align: left;&quot;&gt;待子类实现函数：&lt;/div&gt;&lt;div style=&quot;text-align: left;&quot;&gt;&lt;br&gt;&lt;/div&gt;&lt;div style=&quot;text-align: left;&quot;&gt;&lt;span style=&quot;background-color: initial;&quot;&gt;&lt;b&gt;InitInstrumentInfoMap() = 0&lt;/b&gt;&lt;/span&gt;&lt;/div&gt;&lt;div style=&quot;text-align: left;&quot;&gt;&lt;span style=&quot;background-color: initial;&quot;&gt;&lt;b&gt;InitMd(channel_name) = 0&lt;/b&gt;&lt;/span&gt;&lt;/div&gt;&lt;div style=&quot;text-align: left;&quot;&gt;&lt;span style=&quot;background-color: initial;&quot;&gt;&lt;b&gt;InitPbSuber() = 0&lt;/b&gt;&lt;/span&gt;&lt;/div&gt;&lt;div style=&quot;text-align: left;&quot;&gt;&lt;span style=&quot;background-color: initial;&quot;&gt;&lt;b&gt;GetAvalavlePosForClose(pos_item) = 0&lt;/b&gt;&lt;/span&gt;&lt;/div&gt;&lt;div style=&quot;text-align: left;&quot;&gt;&lt;span style=&quot;background-color: initial;&quot;&gt;&lt;b&gt;GetMdBuyPrice(ins_id, price_type) = 0&lt;/b&gt;&lt;/span&gt;&lt;/div&gt;&lt;div style=&quot;text-align: left;&quot;&gt;&lt;b&gt;GetMdSellPrice(ins_id, price_type) = 0&lt;span style=&quot;background-color: initial;&quot;&gt;&lt;br&gt;&lt;/span&gt;&lt;/b&gt;&lt;/div&gt;&lt;div style=&quot;text-align: left;&quot;&gt;&lt;b&gt;GetOffsetPrice(ins_id, price_type) = 0&lt;br&gt;&lt;/b&gt;&lt;/div&gt;&lt;div style=&quot;text-align: left;&quot;&gt;&lt;b&gt;GetFormatOrder(order_item) = 0&lt;/b&gt;&lt;/div&gt;&lt;div style=&quot;text-align: left;&quot;&gt;&lt;br&gt;&lt;/div&gt;&lt;div style=&quot;text-align: left;&quot;&gt;&lt;br&gt;&lt;/div&gt;&lt;div style=&quot;text-align: left;&quot;&gt;实现函数：&lt;/div&gt;&lt;div style=&quot;text-align: left;&quot;&gt;&lt;br&gt;&lt;/div&gt;&lt;div style=&quot;text-align: left;&quot;&gt;__init__()&lt;/div&gt;&lt;div style=&quot;text-align: left;&quot;&gt;Init()&lt;/div&gt;&lt;div style=&quot;text-align: left;&quot;&gt;Stop()&lt;/div&gt;&lt;div style=&quot;text-align: left;&quot;&gt;ShowMd(instruments)&lt;/div&gt;&lt;div style=&quot;text-align: left;&quot;&gt;GetMdName()&lt;/div&gt;&lt;div style=&quot;text-align: left;&quot;&gt;InitRecvMonitor()&lt;/div&gt;&lt;div style=&quot;text-align: left;&quot;&gt;StopRecvMonitor()&lt;/div&gt;&lt;div style=&quot;text-align: left;&quot;&gt;PublishOrder(ins, vol, price, buysell, oc, margin)&lt;/div&gt;&lt;div style=&quot;text-align: left;&quot;&gt;ActionOrder(key)&lt;/div&gt;&lt;div style=&quot;text-align: left;&quot;&gt;GetAllPositions()&lt;/div&gt;&lt;div style=&quot;text-align: left;&quot;&gt;GetBuyPrice(ins, price_type, offset)&lt;/div&gt;&lt;div style=&quot;text-align: left;&quot;&gt;GetSellPrice(ins, price_type, offset)&lt;/div&gt;&lt;div style=&quot;text-align: left;&quot;&gt;GetAllOrders()&lt;/div&gt;&lt;div style=&quot;text-align: left;&quot;&gt;GetOrderKey(item)&lt;/div&gt;&lt;div style=&quot;text-align: left;&quot;&gt;GetOrderStatusName(key)&lt;/div&gt;&lt;div style=&quot;text-align: left;&quot;&gt;&lt;br&gt;&lt;/div&gt;" style="html=1;" vertex="1" parent="WIyWlLk6GJQsqaUBKTNV-1">
          <mxGeometry x="-180" y="80" width="360" height="510" as="geometry" />
        </mxCell>
        <mxCell id="iNfMXYK0mqE8fQsRYW3O-5" value="«interface»&lt;br&gt;&lt;b&gt;NewStockBusinessInterface&lt;/b&gt;&lt;br&gt;&lt;br&gt;&lt;br&gt;&lt;div style=&quot;text-align: left;&quot;&gt;待子类实现函数：&lt;/div&gt;&lt;div style=&quot;text-align: left;&quot;&gt;&lt;br&gt;&lt;/div&gt;&lt;div style=&quot;text-align: left;&quot;&gt;&lt;div&gt;&lt;span style=&quot;background-color: initial;&quot;&gt;&lt;b&gt;InitInstrumentInfoMap() = 0&lt;/b&gt;&lt;/span&gt;&lt;/div&gt;&lt;div&gt;&lt;span style=&quot;background-color: initial;&quot;&gt;&lt;b&gt;GetAvalavlePosForClose(pos_item) = 0&lt;/b&gt;&lt;/span&gt;&lt;/div&gt;&lt;/div&gt;&lt;div style=&quot;text-align: left;&quot;&gt;&lt;br&gt;&lt;/div&gt;&lt;div style=&quot;text-align: left;&quot;&gt;&lt;br&gt;&lt;/div&gt;&lt;div style=&quot;text-align: left;&quot;&gt;实现函数：&lt;/div&gt;&lt;div style=&quot;text-align: left;&quot;&gt;&lt;br&gt;&lt;/div&gt;&lt;div style=&quot;text-align: left;&quot;&gt;&lt;span style=&quot;background-color: initial;&quot;&gt;InitPbSuber()&lt;/span&gt;&lt;/div&gt;" style="html=1;" vertex="1" parent="WIyWlLk6GJQsqaUBKTNV-1">
          <mxGeometry x="750" y="50" width="320" height="200" as="geometry" />
        </mxCell>
        <mxCell id="iNfMXYK0mqE8fQsRYW3O-6" value="«interface»&lt;br&gt;&lt;b&gt;OldStockBusinessInterface&lt;/b&gt;&lt;br&gt;&lt;br&gt;&lt;br&gt;&lt;div style=&quot;text-align: left;&quot;&gt;待子类实现函数：&lt;/div&gt;&lt;div style=&quot;text-align: left;&quot;&gt;&lt;br&gt;&lt;/div&gt;&lt;div style=&quot;text-align: left;&quot;&gt;&lt;div&gt;&lt;span style=&quot;background-color: initial;&quot;&gt;&lt;b&gt;InitInstrumentInfoMap() = 0&lt;/b&gt;&lt;/span&gt;&lt;/div&gt;&lt;div&gt;&lt;span style=&quot;background-color: initial;&quot;&gt;&lt;b&gt;GetAvalavlePosForClose(pos_item) = 0&lt;/b&gt;&lt;/span&gt;&lt;/div&gt;&lt;/div&gt;&lt;div style=&quot;text-align: left;&quot;&gt;&lt;br&gt;&lt;/div&gt;&lt;div style=&quot;text-align: left;&quot;&gt;&lt;br&gt;&lt;/div&gt;&lt;div style=&quot;text-align: left;&quot;&gt;实现函数：&lt;/div&gt;&lt;div style=&quot;text-align: left;&quot;&gt;&lt;br&gt;&lt;/div&gt;&lt;div style=&quot;text-align: left;&quot;&gt;&lt;span style=&quot;background-color: initial;&quot;&gt;InitPbSuber()&lt;/span&gt;&lt;/div&gt;" style="html=1;" vertex="1" parent="WIyWlLk6GJQsqaUBKTNV-1">
          <mxGeometry x="750" y="280" width="320" height="200" as="geometry" />
        </mxCell>
        <mxCell id="iNfMXYK0mqE8fQsRYW3O-7" value="«interface»&lt;br&gt;&lt;b&gt;OldStockBusinessInterface&lt;/b&gt;&lt;br&gt;&lt;br&gt;&lt;br&gt;&lt;div style=&quot;text-align: left;&quot;&gt;待子类实现函数：&lt;/div&gt;&lt;div style=&quot;text-align: left;&quot;&gt;&lt;br&gt;&lt;/div&gt;&lt;div style=&quot;text-align: left;&quot;&gt;&lt;div&gt;&lt;span style=&quot;background-color: initial;&quot;&gt;&lt;b&gt;InitInstrumentInfoMap() = 0&lt;/b&gt;&lt;/span&gt;&lt;/div&gt;&lt;div&gt;&lt;span style=&quot;background-color: initial;&quot;&gt;&lt;b&gt;GetAvalavlePosForClose(pos_item) = 0&lt;/b&gt;&lt;/span&gt;&lt;/div&gt;&lt;/div&gt;&lt;div style=&quot;text-align: left;&quot;&gt;&lt;br&gt;&lt;/div&gt;&lt;div style=&quot;text-align: left;&quot;&gt;&lt;br&gt;&lt;/div&gt;&lt;div style=&quot;text-align: left;&quot;&gt;实现函数：&lt;/div&gt;&lt;div style=&quot;text-align: left;&quot;&gt;&lt;br&gt;&lt;/div&gt;&lt;div style=&quot;text-align: left;&quot;&gt;&lt;span style=&quot;background-color: initial;&quot;&gt;InitPbSuber()&lt;/span&gt;&lt;/div&gt;" style="html=1;" vertex="1" parent="WIyWlLk6GJQsqaUBKTNV-1">
          <mxGeometry x="750" y="510" width="320" height="200" as="geometry" />
        </mxCell>
      </root>
    </mxGraphModel>
  </diagram>
</mxfile>
